# xmcd CD database file
#
# Track frame offsets:
#	150
#	18048
#	34452
#	58051
#	82330
#
# Disc length: 1352 seconds
#
# Revision: 0
# Processed by: cddbd v1.5.1PL0 Copyright (c) Steve Scherf et al.
# Submitted via: CDex 1.51
#
DISCID=3d054605
DTITLE=Notion - Notion
DYEAR=2003
DGENRE=JPop
TTITLE0=×××　〜unknown story〜
TTITLE1=紅い記憶
TTITLE2=Autumn Leaves
TTITLE3=スカイ
TTITLE4=擬似行為
EXTD=YEAR: 2003
EXTT0=
EXTT1=
EXTT2=
EXTT3=
EXTT4=
PLAYORDER=
